HIERARCHY
ROOT hips
{
  OFFSET 4.514983404067499e-9 10.105397940993303 1.318478203070619
  CHANNELS 6 Xposition Yposition Zposition Yrotation Xrotation Zrotation
  JOINT spine
  {
    OFFSET -3.891297943093837e-9 0.5743022203102706 0
    CHANNELS 3 Yrotation Xrotation Zrotation
    JOINT chest
    {
      OFFSET 0 1.2550312016247926 0
      CHANNELS 3 Yrotation Xrotation Zrotation
      JOINT upperChest
      {
        OFFSET 0 1.2059856050120283 0
        CHANNELS 3 Yrotation Xrotation Zrotation
        JOINT neck
        {
          OFFSET 0 1.5290392449770056 0
          CHANNELS 3 Yrotation Xrotation Zrotation
          JOINT head
          {
            OFFSET 0 0.8186276690878121 0
            CHANNELS 3 Yrotation Xrotation Zrotation
            JOINT leftEye
            {
              OFFSET 0.4540883942785781 -0.2684596961258452 0.6133497327236779
              CHANNELS 3 Yrotation Xrotation Zrotation
              End Site
              {
                OFFSET 0.4540883942785781 -0.2684596961258452 0.6133497327236779
              }
            }
            JOINT rightEye
            {
              OFFSET -0.4540889229417456 -0.26846010916843954 0.6133525398671689
              CHANNELS 3 Yrotation Xrotation Zrotation
              End Site
              {
                OFFSET -0.4540889229417456 -0.26846010916843954 0.6133525398671689
              }
            }
          }
        }
        JOINT leftShoulder
        {
          OFFSET 1.1700010731725468 -0.4176065950681176 0
          CHANNELS 3 Yrotation Xrotation Zrotation
          JOINT leftUpperArm
          {
            OFFSET 1.1803911524554955 0 0
            CHANNELS 3 Yrotation Xrotation Zrotation
            JOINT leftLowerArm
            {
              OFFSET 2.4406171707858904 0 0
              CHANNELS 3 Yrotation Xrotation Zrotation
              JOINT leftHand
              {
                OFFSET 2.3832177068873874 0 0
                CHANNELS 3 Yrotation Xrotation Zrotation
                JOINT leftIndexProximal
                {
                  OFFSET 0.7310175006235151 0.08192774217833776 0.20404791572985242
                  CHANNELS 3 Yrotation Xrotation Zrotation
                  JOINT leftIndexIntermediate
                  {
                    OFFSET 0.3688845439429529 -0.010662034455094949 -0.014226011560394963
                    CHANNELS 3 Yrotation Xrotation Zrotation
                    JOINT leftIndexDistal
                    {
                      OFFSET 0.2271119941018298 -0.007897656478952575 -0.007580683836364496
                      CHANNELS 3 Yrotation Xrotation Zrotation
                      End Site
                      {
                        OFFSET 0.2271119941018298 -0.007897656478952575 -0.007580683836364496
                      }
                    }
                  }
                }
                JOINT leftLittleProximal
                {
                  OFFSET 0.678269929308182 0.08192620621401336 -0.323876516389586
                  CHANNELS 3 Yrotation Xrotation Zrotation
                  JOINT leftLittleIntermediate
                  {
                    OFFSET 0.34904545821382604 -0.0000017106393073174075 8.629360392919949e-9
                    CHANNELS 3 Yrotation Xrotation Zrotation
                    JOINT leftLittleDistal
                    {
                      OFFSET 0.2011060672849896 0.0031247840072243793 0.0038660318003989197
                      CHANNELS 3 Yrotation Xrotation Zrotation
                      End Site
                      {
                        OFFSET 0.2011060672849896 0.0031247840072243793 0.0038660318003989197
                      }
                    }
                  }
                }
                JOINT leftMiddleProximal
                {
                  OFFSET 0.7368181082522638 0.0819260272939426 0.02272335773438093
                  CHANNELS 3 Yrotation Xrotation Zrotation
                  JOINT leftMiddleIntermediate
                  {
                    OFFSET 0.41136739116025356 -0.0000015892429323649537 5.27860346960507e-8
                    CHANNELS 3 Yrotation Xrotation Zrotation
                    JOINT leftMiddleDistal
                    {
                      OFFSET 0.25378150303820757 -0.0000015332469289752737 1.3442958385345705e-8
                      CHANNELS 3 Yrotation Xrotation Zrotation
                      End Site
                      {
                        OFFSET 0.25378150303820757 -0.0000015332469289752737 1.3442958385345705e-8
                      }
                    }
                  }
                }
                JOINT leftRingProximal
                {
                  OFFSET 0.7284256823094712 0.08192611199801392 -0.1508405069143483
                  CHANNELS 3 Yrotation Xrotation Zrotation
                  JOINT leftRingIntermediate
                  {
                    OFFSET 0.381593741461262 -0.0000016975471202052006 6.592486757883709e-8
                    CHANNELS 3 Yrotation Xrotation Zrotation
                    JOINT leftRingDistal
                    {
                      OFFSET 0.22014536669820362 -0.0027420652959939673 -0.005037497035641991
                      CHANNELS 3 Yrotation Xrotation Zrotation
                      End Site
                      {
                        OFFSET 0.22014536669820362 -0.0027420652959939673 -0.005037497035641991
                      }
                    }
                  }
                }
                JOINT leftThumbProximal
                {
                  OFFSET 0.10842212958334652 -0.16573713992498873 -0.07779936144556289
                  CHANNELS 3 Yrotation Xrotation Zrotation
                  JOINT leftThumbIntermediate
                  {
                    OFFSET 0.40720553822379024 -0.01751267955631075 0.31852684427382305
                    CHANNELS 3 Yrotation Xrotation Zrotation
                    JOINT leftThumbDistal
                    {
                      OFFSET 0.23412859218032667 -0.01859690713588802 0.2146635043319005
                      CHANNELS 3 Yrotation Xrotation Zrotation
                      End Site
                      {
                        OFFSET 0.23412859218032667 -0.01859690713588802 0.2146635043319005
                      }
                    }
                  }
                }
              }
            }
          }
        }
        JOINT rightShoulder
        {
          OFFSET -1.1700037144859516 -0.41760703856471126 0
          CHANNELS 3 Yrotation Xrotation Zrotation
          JOINT rightUpperArm
          {
            OFFSET -1.1803910289368023 0 0
            CHANNELS 3 Yrotation Xrotation Zrotation
            JOINT rightLowerArm
            {
              OFFSET -2.440617418222133 0 0
              CHANNELS 3 Yrotation Xrotation Zrotation
              JOINT rightHand
              {
                OFFSET -2.3832181162662343 0 0
                CHANNELS 3 Yrotation Xrotation Zrotation
                JOINT rightIndexProximal
                {
                  OFFSET -0.7310168852843362 0.08192787643494381 0.20404785424302163
                  CHANNELS 3 Yrotation Xrotation Zrotation
                  JOINT rightIndexIntermediate
                  {
                    OFFSET -0.3688846010723953 -0.01066191355993129 -0.014226020535245201
                    CHANNELS 3 Yrotation Xrotation Zrotation
                    JOINT rightIndexDistal
                    {
                      OFFSET -0.22711216276130997 -0.007898902439410271 -0.007580718044857868
                      CHANNELS 3 Yrotation Xrotation Zrotation
                      End Site
                      {
                        OFFSET -0.22711216276130997 -0.007898902439410271 -0.007580718044857868
                      }
                    }
                  }
                }
                JOINT rightLittleProximal
                {
                  OFFSET -0.6782685897119165 0.08192501740206293 -0.3238766118101876
                  CHANNELS 3 Yrotation Xrotation Zrotation
                  JOINT rightLittleIntermediate
                  {
                    OFFSET -0.34904682243945895 -2.664019085329983e-7 3.792712677253007e-8
                    CHANNELS 3 Yrotation Xrotation Zrotation
                    JOINT rightLittleDistal
                    {
                      OFFSET -0.20110609302945537 0.0031260842677420797 0.0038661724369087186
                      CHANNELS 3 Yrotation Xrotation Zrotation
                      End Site
                      {
                        OFFSET -0.20110609302945537 0.0031260842677420797 0.0038661724369087186
                      }
                    }
                  }
                }
                JOINT rightMiddleProximal
                {
                  OFFSET -0.7368168209984411 0.08192485183145659 0.022723294831187846
                  CHANNELS 3 Yrotation Xrotation Zrotation
                  JOINT rightMiddleIntermediate
                  {
                    OFFSET -0.4113687575187084 -9.03141548214137e-8 4.759541079313312e-8
                    CHANNELS 3 Yrotation Xrotation Zrotation
                    JOINT rightMiddleDistal
                    {
                      OFFSET -0.2537822083525749 -9.554208624251714e-8 -1.6364827826187422e-9
                      CHANNELS 3 Yrotation Xrotation Zrotation
                      End Site
                      {
                        OFFSET -0.2537822083525749 -9.554208624251714e-8 -1.6364827826187422e-9
                      }
                    }
                  }
                }
                JOINT rightRingProximal
                {
                  OFFSET -0.7284243957721679 0.08192492753028224 -0.15084062217729294
                  CHANNELS 3 Yrotation Xrotation Zrotation
                  JOINT rightRingIntermediate
                  {
                    OFFSET -0.381595106800805 -2.5662436442530634e-7 2.929475539925619e-8
                    CHANNELS 3 Yrotation Xrotation Zrotation
                    JOINT rightRingDistal
                    {
                      OFFSET -0.22014544912608125 -0.002738002524970362 -0.0050375115645966
                      CHANNELS 3 Yrotation Xrotation Zrotation
                      End Site
                      {
                        OFFSET -0.22014544912608125 -0.002738002524970362 -0.0050375115645966
                      }
                    }
                  }
                }
                JOINT rightThumbProximal
                {
                  OFFSET -0.10842026863657162 -0.16573778435706465 -0.07779917642461898
                  CHANNELS 3 Yrotation Xrotation Zrotation
                  JOINT rightThumbIntermediate
                  {
                    OFFSET -0.40720600760521597 -0.017512298079938038 0.3185267362029824
                    CHANNELS 3 Yrotation Xrotation Zrotation
                    JOINT rightThumbDistal
                    {
                      OFFSET -0.2341289751103648 -0.018594162598156494 0.21466399510514025
                      CHANNELS 3 Yrotation Xrotation Zrotation
                      End Site
                      {
                        OFFSET -0.2341289751103648 -0.018594162598156494 0.21466399510514025
                      }
                    }
                  }
                }
              }
            }
          }
        }
      }
    }
  }
  JOINT leftUpperLeg
  {
    OFFSET -0.8565189721517369 0.4427277044191169 0
    CHANNELS 3 Yrotation Xrotation Zrotation
    JOINT leftLowerLeg
    {
      OFFSET 0 -3.918486704769693 0
      CHANNELS 3 Yrotation Xrotation Zrotation
      JOINT leftFoot
      {
        OFFSET 6.174701361744139e-7 -0.055233446196002234 4.612027801972084
        CHANNELS 3 Yrotation Xrotation Zrotation
        JOINT leftToes
        {
          OFFSET -3.4372540951010944e-7 -0.705284859504459 1.2256624571888697
          CHANNELS 3 Yrotation Xrotation Zrotation
          End Site
          {
            OFFSET -3.4372540951010944e-7 -0.705284859504459 1.2256624571888697
          }
        }
      }
    }
  }
  JOINT rightUpperLeg
  {
    OFFSET 0.8565189732197466 0.44272769569168136 0
    CHANNELS 3 Yrotation Xrotation Zrotation
    JOINT rightLowerLeg
    {
      OFFSET 0 -3.918486692649319 0
      CHANNELS 3 Yrotation Xrotation Zrotation
      JOINT rightFoot
      {
        OFFSET 6.995136552362391e-7 -0.05523244834012664 4.612028499942008
        CHANNELS 3 Yrotation Xrotation Zrotation
        JOINT rightToes
        {
          OFFSET -4.2566694985479714e-7 -0.7052846587611067 1.22566236096697
          CHANNELS 3 Yrotation Xrotation Zrotation
          End Site
          {
            OFFSET -4.2566694985479714e-7 -0.7052846587611067 1.22566236096697
          }
        }
      }
    }
  }
}
MOTION
Frames: 4
Frame Time: 0.03333333333333333
-0.08075875788927078 -0.9115912927389083 -0.3923605680465698 -1.9759136155116204 2.0524369209174127 -2.850079263310716 0.15679565790433292 3.0613871768870666 0.46442115307128257 0.614047368202755 10.793183917699045 1.2713612211464647 0 0 0 -0.04085131540929259 4.525686625758357 -0.6407036824327537 -3.451293245008653 -18.56668091612401 6.666356885103712 0 0 0 0 0 0 -3.3319452543138333 0.30103111369414576 5.5927426171112264 24.25326542010604 -69.91744633990294 -1.0388539693352088 -91.8486399274597 0.7640342101958308 0.739780980328291 -19.298566598949424 -34.33231245579519 28.93444687543777 6.1347968802977135 5.45577440781104 -83.46110960791626 5.9689817096645115 4.591902638462713 -75.12263111490122 3.5987309414654174 1.1587392570519819 -35.687753950100316 6.646917391323649 9.832332661468067 -83.10350064424918 1.9934405027312974 5.2132043046833 -81.17079296595404 2.8012736128729747 0.6729877703932781 -27.014504772967374 6.099620504347677 5.204132638981069 -81.45092854332569 6.176359242376741 6.255571747725971 -90.73328303690843 3.822245757175178 1.327050018633449 -38.28296171605888 6.148349570687739 6.855146307767489 -93.17770480552362 6.095069137188435 5.1780033027245524 -80.68505445387355 3.2250005814346334 0.9104272894700393 -31.523646246197828 -8.004597927836954 -10.28365834745657 0.4398170348530324 44.023992121166 13.283378707854963 2.297995836478891 45.651906795168145 17.067725487594306 8.884216329049453 3.4522521687206753 0.6029389800931916 -5.470358831183945 8.978567121520426 -77.20593060820163 -24.871603945719297 92.97625042584414 0.7785375100080291 -0.7391079579289096 17.824497724817043 -16.749083288370674 6.254491242541087 -6.3011670914215845 3.5948446297300336 91.31688104118207 -6.236582751453763 5.9238267369058 87.04787804600078 -3.142187326553038 0.8497437155072409 30.25868227421102 -5.71942401846863 8.845793855382441 120.98203526208894 -6.244468047737592 6.3200928095185605 90.691324153036 -4.261701935437108 1.6832676535891058 43.09033141928449 -6.234020085538814 6.713114371774332 91.77802967614075 -6.244499560042525 6.314338438969737 90.63841501926551 -3.827881423994946 1.357639518492564 38.113548780362336 -6.23449658202973 6.655498980932836 95.24130833514162 -6.2446180866510925 6.303284282679862 90.5368628691961 -4.234086420455391 1.566989399867541 42.18311507607107 2.5365775385615934 -37.777580455882216 7.076583952987804 -32.62243971840684 15.09030323382876 -16.152600079245534 -27.53195770546868 8.24087285022929 -6.620252621537466 13.90776198167175 -30.550981438616258 13.201694754219046 7.100393634755505 46.59244953065003 4.435715139814318 1.9773755482347233 -17.260819124015253 -11.116234061386184 -0.0000031686599158435887 -0.005245351002402086 -0.000005935973931319891 -11.564852856758586 -28.318342773917184 -3.7062689330364074 -10.470878553503015 45.541645742177614 -7.2753374704126745 -2.450991171941556 -17.620292457338323 9.666733289810798 -0.000003149464632230021 -0.000024334615413603234 -0.000003374695942775546
-0.08946386724710464 -0.9294745935201583 -0.39381515979766846 -2.5694511843702563 1.9151542510017052 -2.600456338215627 0.02594286079795037 3.117701978908253 0.4634218135918308 0.15704295665517765 10.986609648615339 1.3056996681182824 0 0 0 -0.12529773200539332 4.550172774268327 -0.8675288486695932 -3.8360990311901255 -18.302290390293138 6.252601827953729 0 0 0 0 0 0 -2.2651100501556853 0.13763163244713902 6.327032131670093 28.412602743043383 -68.64981520042372 -9.413760224601754 -94.79532595309655 0.8020359696962743 0.7375784255253643 -19.025575199398695 -32.737873714429156 30.68483312407545 6.1347711023821265 5.4554219100897665 -83.46207945735405 5.968357536990741 4.589437141522506 -75.09896356063514 3.6015390257958804 1.1607663174927911 -35.71975074570495 6.648524415704979 9.835922594946345 -83.08827519489631 1.9935641747689545 5.2140856302237895 -81.17903530784972 2.797511651861475 0.6710929562497877 -26.97545904903167 6.099313496515514 5.202217845394551 -81.44255433918308 6.1762642918098285 6.262070132330147 -90.79379597094426 3.8203167439220285 1.325522742024552 -38.260402245221 6.148034692438976 6.8607457172274815 -93.17501865144742 6.094455540537593 5.174203884321785 -80.64947867972425 3.2218042604224033 0.9084677388267636 -31.48885448900788 -8.155674274838672 -10.401007990669854 0.43095721222708344 43.99424810870155 13.274920470441915 2.292998582564196 45.6383177293834 17.06245086957589 8.877508737390853 3.650006263251503 0.5887542046377727 -4.980223502369051 10.098037532315336 -77.94893153340091 -26.103210580305753 95.22131011576077 0.8074611691263152 -0.7370593481504469 17.358897044473753 -16.837630766260144 6.56900254423492 -6.304051650990876 3.6119175701770887 91.39305199791076 -6.2366003969013075 5.9244863848753635 87.05404103569796 -3.1425667580008705 0.849952379395423 30.262577782289135 -5.72426236351849 8.837348719230224 120.9957456571883 -6.244460733934031 6.319629811819941 90.68704127478851 -4.2604951925725665 1.6821473396153082 43.07539396921922 -6.233846017844753 6.722902645495287 91.78211986256315 -6.244499515563836 6.316147463926847 90.65497330481858 -3.827401170799352 1.358013149377329 38.11220955776449 -6.23391189928638 6.662734003733655 95.2599220698005 -6.244610194210099 6.3044189785181945 90.54713591346528 -4.233536107888536 1.564966481463881 42.167188398674014 2.734569624882691 -37.72856056329068 6.810998104233373 -32.39834360125075 15.043850736305531 -15.976214371114663 -27.484794916636684 8.228051022846351 -6.610763229888308 14.187411491087326 -30.46654663125801 13.125299405426626 7.465366118659594 47.008122630925875 4.67022106170607 2.0351197259576326 -17.509592746703454 -11.308534029340644 5.4938121762809187e-8 -0.0027188434281535567 0.000004268512009133638 -11.717653920884366 -28.72907483181693 -4.119649287255038 -10.697117859910604 46.25627620120159 -7.189484825889918 -1.5109037464477721 -17.949339175697936 9.190629369358652 -0.0000030995947561576705 -0.000015609909153581614 4.004092842635652e-8
-0.10159305483102798 -0.9549100412130294 -0.3903852701187134 -3.1898414656636422 1.7963223868781877 -2.316950524985592 -0.08970716879290767 3.17555553039214 0.4241340733664494 -0.24862268688288483 11.194222104370292 1.2418925193174997 0 0 0 -0.13104441548036647 4.425969534032256 -0.9731679237683513 -3.739531114438488 -18.445897913419174 5.82297005058772 0 0 0 0 0 0 -1.4878533299272692 0.012292914865047027 6.762307063070553 30.638230976086838 -67.33840423155654 -14.672220648418111 -97.73416619705033 0.8397686875155944 0.7334383754556041 -18.139241822129463 -31.223383211570464 31.61561003926501 6.1348927193884615 5.456504276014029 -83.47690295635527 5.963154976342437 4.5701083171164605 -74.91353947685377 3.6043760941362715 1.1628048009612522 -35.75217014361856 6.654799404379715 9.830921134218075 -82.99842010597517 1.9932770116825105 5.212114223296352 -81.16074633420456 2.79266681777406 0.6685847180347538 -26.924634074356277 6.098922421410701 5.199663510389461 -81.42842286689473 6.176186856511696 6.26764999538011 -90.84555954241831 3.8147716039962054 1.3211704305164416 -38.19482767126207 6.147955029853161 6.864014757118386 -93.15104167923766 6.09394287331127 5.171098442520722 -80.62003772806736 3.216150880738089 0.9050311897240848 -31.427472588612776 -8.406751971588882 -10.582594552170567 0.5590703409293342 43.876350818654245 13.242330674561712 2.274005488903882 45.60875375184883 17.050751859215058 8.865621207202283 3.8225649230540086 0.5732628592375674 -4.465533811416993 11.794024358528727 -78.76190101387886 -28.139232546607044 97.21954125770404 0.8331111049726185 -0.734243797574053 16.876433239707463 -16.938273269925023 7.050241689393937 -6.307229551882932 3.7225250497365305 91.52984105854507 -6.236576193493022 5.923667082473382 87.04666681824712 -3.1458173592638166 0.8518614143457791 30.29722164529079 -5.73340757236242 8.81846753232877 120.90609844378518 -6.244515298741509 6.313374659023403 90.62949182426661 -4.260211222402376 1.6818782849875984 43.071920660828404 -6.232838894999297 6.742382636294568 91.87410258413388 -6.244509334059249 6.315859273630269 90.65257827371182 -3.8245466685265233 1.3564315168613488 38.08257109795607 -6.23326685266099 6.669860824721243 95.27115058184529 -6.244666846356817 6.299931747703857 90.50595196913751 -4.233133812468213 1.563161038045148 42.153578450657534 3.1147167516304313 -37.70068091682978 6.297187385684312 -32.14019326476585 14.988990443621685 -15.773592410463507 -27.409603859528563 8.207344427458306 -6.593676425534341 14.65226588683351 -30.482610592504273 13.212706118572175 7.378657453755955 47.66039641196735 4.298155355858486 2.077271408947782 -17.897816702000483 -11.30513825868487 0.000009158329955962016 -0.0011397145508687298 -0.0000018259956270618799 -11.778884731763812 -29.260585977229564 -4.533951667667569 -9.929062137636436 47.29939618575017 -6.394974613270088 -1.4987353814674522 -18.400528804800036 8.747118958734754 -0.0000060996199325683006 -0.0000027400282149751082 -7.750508976642544e-7
-0.1157657578587532 -0.9732635034322676 -0.3836379945278168 -3.939530871014213 1.7369089581203345 -2.024550817575992 -0.20121969512901977 3.2114800575668614 0.3637354859144087 -0.6439916302172899 11.34768420394889 1.1076701036189338 0 0 0 -0.08396085083198608 4.2517562714097705 -1.0327390330263564 -3.450235244104326 -19.03729046599913 5.598222518325229 0 0 0 0 0 0 -1.2586846123570021 -0.031462144079832804 6.932193395712568 31.570698919299403 -66.21338329835822 -16.699914738028557 -100.25601591233621 0.8719506868344864 0.7283370628490917 -17.079412503513897 -31.346504743065125 33.289729111662815 6.135026028161329 5.457459709998048 -83.49006429857313 5.96714698816058 4.584963123571696 -75.05609563753849 3.6077036599568317 1.1652056810068019 -35.790154407167854 6.6573282396594 9.832698325127065 -82.96754447473985 1.9927367043092186 5.2087303963885425 -81.12899664109283 2.792429068839971 0.6685002954185406 -26.922489597412504 6.0987545241632315 5.198553305924159 -81.42750645220428 6.17619925665221 6.266202308717392 -90.83217570202753 3.812490338394499 1.3193676357447304 -38.16787145729001 6.148118384329657 6.8655119100694035 -93.11044294805147 6.093874209652021 5.1707049590570255 -80.61658932067596 3.2154286583465317 0.9045780995880476 -31.419601438697946 -8.482278275956936 -10.718467203498006 0.48790250886915226 43.80229131849528 13.22260383724538 2.263320965551834 45.604584490441326 17.04877828161246 8.865530929795952 3.926075827991956 0.5678673292348524 -4.131485270484348 14.948472139264524 -79.4729557433099 -31.496129243779972 98.0909618139456 0.8442909211727426 -0.7327553878846202 16.5808388704701 -16.882565104813093 7.358201028254943 -6.311162403751096 3.770920059492351 91.64289206555566 -6.236597147303341 5.9241250161438135 87.05081270822198 -3.1470240489213777 0.852579997717315 30.31008188430549 -5.7425510854591595 8.801679785791597 120.83192621036935 -6.24459858125894 6.30850596563602 90.58471101474585 -4.2595155237821105 1.6812149373675156 43.06266567183354 -6.232342822360271 6.751375384703906 91.90847115582771 -6.244504366600959 6.315037223501865 90.64484641932329 -3.8248297474382986 1.357413311707823 38.09042754789837 -6.23280844218503 6.6770479216568015 95.32842742591023 -6.244636429086556 6.300271037345272 90.50884163369471 -4.2348161762754275 1.5631140630138858 42.16428116389457 3.786621512829633 -37.63204961716905 5.335662359781568 -31.845446178489635 14.924544778581472 -15.542963194609708 -27.34556747517967 8.190159049097154 -6.579954998904107 15.164501507002015 -30.37457258622426 13.350425049802107 6.977857788261164 48.09201004494953 3.551301867106867 2.3018033850390265 -18.209153350640523 -11.264585624010103 0.000004524146369101459 -0.003759035300063547 -9.122862852820407e-7 -11.608051505404301 -29.722246955014718 -4.791986374234718 -9.201370974479879 48.07504311453604 -5.853932556237845 -1.5627464231360342 -18.745629565903727 8.449885628825944 -0.000009138727893427407 -0.11212513733273002 0.0000035333536349561605
